<?xml version="1.0" encoding="UTF-8"?>
<svg id="Layer_1" data-name="Layer 1" xmlns="http://www.w3.org/2000/svg" viewBox="0 0 449.35 278.57">
  <defs>
    <style>
      .cls-1, .cls-2 {
        fill: none;
      }

      .cls-1, .cls-2, .cls-3 {
        stroke-linecap: round;
        stroke-linejoin: round;
        stroke-width: 8.73px;
      }

      .cls-1, .cls-3 {
        stroke: #010101;
      }

      .cls-2 {
        stroke: #e97326;
      }

      .cls-3 {
        fill: #fff;
      }
    </style>
  </defs>
  <path class="cls-3" d="M173.98,274.21l31.85-28.61c5.7-5.1,10.44-11.58,17.6-14.77l15.67-6.98c3.35-1.49,6.43-2.04,9.69-4.44,3.42-2.52,8.07-3.28,11.59-4.72l7.85-3.21c5.86-2.39,12.04-3.92,18.34-5.02l8.73-1.52,4.37-.72,10.47-.59c1.74-.1,3.48-.33,5.25-.28l8.71.2,4.36.11,9.58.72c5.48.41,10.54,1.56,16.22,3.42l75.04,24.68c5.3,1.74,17.73-5.63,15.37-12.5-.37-1.09-2-2.68-3.73-3.29l-103.33-36.45c-47.87-45.44-99.56-85.51-156.07-119.09-9.11-5.42-16.49-10.62-22.79-19.29C135.47,13.43,98.53-5.46,64.61,9.78c-11.9,5.35-20.81,13.86-25.06,26.23-12.61,1.25-23.85,3.62-35.19,8.04l38.1,12.1,5.43,18.08c3.09,10.31,2.38,20.14.58,30.62-3.47,20.13-.94,40.32,6.34,58.85l7.85,14.82c26.42,43.7,78.23,59.82,128.43,58.62l-45.16,35.18"/>
  <line class="cls-2" x1="104.05" y1="162.15" x2="104.05" y2="216.56"/>
  <line class="cls-2" x1="91.81" y1="78.25" x2="91.81" y2="209.02"/>
  <line class="cls-2" x1="79.57" y1="69.35" x2="79.57" y2="197.89"/>
  <line class="cls-2" x1="67.33" y1="111.39" x2="67.33" y2="185.61"/>
  <line class="cls-2" x1="116.29" y1="117.77" x2="116.29" y2="221.6"/>
  <line class="cls-2" x1="128.53" y1="88.05" x2="128.53" y2="226.96"/>
  <line class="cls-2" x1="140.78" y1="157.5" x2="140.78" y2="230.01"/>
  <line class="cls-2" x1="153.02" y1="123.21" x2="153.02" y2="232.69"/>
  <line class="cls-2" x1="165.26" y1="197.89" x2="165.26" y2="234.5"/>
  <line class="cls-2" x1="177.5" y1="105.08" x2="177.5" y2="234.5"/>
  <line class="cls-2" x1="189.74" y1="129.47" x2="189.74" y2="234.59"/>
  <line class="cls-2" x1="201.98" y1="162.15" x2="201.98" y2="246.25"/>
  <line class="cls-2" x1="214.22" y1="120.77" x2="214.22" y2="234.54"/>
  <line class="cls-2" x1="226.46" y1="193.76" x2="226.46" y2="226.96"/>
  <line class="cls-2" x1="238.7" y1="162.15" x2="238.7" y2="221.6"/>
  <line class="cls-2" x1="250.95" y1="144.65" x2="250.95" y2="216.19"/>
  <line class="cls-2" x1="263.19" y1="132.7" x2="263.19" y2="209.79"/>
  <line class="cls-2" x1="275.43" y1="143.49" x2="275.43" y2="206.63"/>
  <line class="cls-2" x1="287.67" y1="157.5" x2="287.67" y2="204.5"/>
  <line class="cls-2" x1="299.91" y1="167.85" x2="299.91" y2="200.83"/>
  <line class="cls-2" x1="312.15" y1="175.06" x2="312.15" y2="200.83"/>
  <line class="cls-2" x1="324.39" y1="189.35" x2="324.39" y2="200.83"/>
  <path class="cls-1" d="M173.98,274.21l31.85-28.61c5.7-5.1,10.44-11.58,17.6-14.77l15.67-6.98c3.35-1.49,6.43-2.04,9.69-4.44,3.42-2.52,8.07-3.28,11.59-4.72l7.85-3.21c5.86-2.39,12.04-3.92,18.34-5.02l8.73-1.52,4.37-.72,10.47-.59c1.74-.1,3.48-.33,5.25-.28l8.71.2,4.36.11,9.58.72c5.48.41,10.54,1.56,16.22,3.42l75.04,24.68c5.3,1.74,17.73-5.63,15.37-12.5-.37-1.09-2-2.68-3.73-3.29l-103.33-36.45c-47.87-45.44-99.56-85.51-156.07-119.09-9.11-5.42-16.49-10.62-22.79-19.29C135.47,13.43,98.53-5.46,64.61,9.78c-11.9,5.35-20.81,13.86-25.06,26.23-12.61,1.25-23.85,3.62-35.19,8.04l38.1,12.1,5.43,18.08c3.09,10.31,2.38,20.14.58,30.62-3.47,20.13-.94,40.32,6.34,58.85l7.85,14.82c26.42,43.7,78.23,59.82,128.43,58.62l-45.16,35.18"/>
</svg>